<?xml version="1.0" standalone="no"?><!DOCTYPE svg PUBLIC "-//W3C//DTD SVG 1.1//EN" "http://www.w3.org/Graphics/SVG/1.1/DTD/svg11.dtd"><svg t="1775978457471" class="icon" viewBox="0 0 1024 1024" version="1.1" xmlns="http://www.w3.org/2000/svg" p-id="5098" xmlns:xlink="http://www.w3.org/1999/xlink" width="200" height="200"><path d="M36.864 957.44H20.48c-6.144 0-10.24 4.096-10.24 10.24s4.096 10.24 10.24 10.24h16.384c6.144 0 10.24-4.096 10.24-10.24s-4.096-10.24-10.24-10.24zM1003.52 957.44h-26.624c-6.144 0-10.24 4.096-10.24 10.24s4.096 10.24 10.24 10.24H1003.52c6.144 0 10.24-4.096 10.24-10.24s-5.12-10.24-10.24-10.24zM857.088 466.944c8.192 8.192 20.48 8.192 28.672 0l22.528-22.528c8.192-8.192 8.192-21.504 0-28.672l-296.96-296.96c-8.192-8.192-20.48-8.192-28.672 0l-22.528 22.528c-8.192 8.192-8.192 20.48 0 28.672 109.568 108.544 236.544 235.52 296.96 296.96zM969.728 272.384c9.216-9.216 9.216-23.552 0-32.768L786.432 56.32c-9.216-9.216-23.552-9.216-32.768 0l-22.528 22.528 216.064 216.064 22.528-22.528zM729.088 367.616L658.432 296.96 309.248 646.144l70.656 70.656 349.184-349.184zM428.032 896c8.192 8.192 20.48 8.192 28.672 0l22.528-22.528c8.192-8.192 8.192-20.48 0-28.672l-296.96-296.96c-4.096-4.096-9.216-6.144-14.336-6.144-5.12 0-10.24 2.048-14.336 6.144l-22.528 22.528c-8.192 8.192-8.192 20.48 0 28.672l296.96 296.96zM952.32 144.384c2.048-2.048 4.096-6.144 4.096-9.216 0-3.072-1.024-6.144-4.096-9.216l-52.224-53.248c-5.12-5.12-13.312-5.12-18.432 0l-24.576 24.576 70.656 70.656 24.576-23.552zM147.456 944.128c3.072 0 6.144-1.024 9.216-4.096l24.576-24.576-70.656-70.656-24.576 24.576c-5.12 5.12-5.12 13.312 0 18.432l52.224 52.224c3.072 3.072 6.144 4.096 9.216 4.096zM979.968 364.544c0-5.12-2.048-10.24-6.144-14.336C898.048 273.408 749.568 125.952 675.84 52.224c-4.096-4.096-9.216-6.144-14.336-6.144-5.12 0-10.24 2.048-14.336 6.144L624.64 74.752c-8.192 8.192-8.192 21.504 0 28.672l296.96 296.96c4.096 4.096 9.216 6.144 14.336 6.144 5.12 0 10.24-2.048 14.336-6.144l22.528-22.528c5.12-3.072 7.168-8.192 7.168-13.312zM772.096 703.488c-53.248 0-97.28 43.008-97.28 96.256s43.008 97.28 97.28 97.28c53.248 0 97.28-43.008 97.28-97.28 0-53.248-43.008-96.256-97.28-96.256zM842.752 496.64z" p-id="5099"></path><path d="M950.272 800.768c0-52.224-22.528-101.376-62.464-135.168-1.024-1.024-2.048-2.048-3.072-2.048l24.576-74.752c14.336-44.032-17.408-92.16-65.536-92.16H704.512c-52.224 0-80.896 48.128-67.584 90.112l25.6 76.8c-1.024 1.024-2.048 1.024-3.072 2.048-39.936 33.792-63.488 82.944-63.488 135.168 0 67.584 38.912 126.976 95.232 156.672H395.264l18.432-18.432c8.192-8.192 8.192-20.48 0-28.672l-296.96-296.96c-8.192-8.192-21.504-8.192-28.672 0L64.512 634.88c-8.192 8.192-8.192 21.504 0 28.672l292.864 292.864h-72.704l22.528-22.528-216.064-215.04-22.528 22.528c-9.216 9.216-9.216 23.552 0 32.768l183.296 183.296H79.872c-6.144 0-10.24 4.096-10.24 10.24s4.096 10.24 10.24 10.24h856.064c6.144 0 10.24-4.096 10.24-10.24s-4.096-10.24-10.24-10.24h-81.92c57.344-29.696 96.256-89.088 96.256-156.672zM703.488 541.696h139.264c16.384 0 28.672 17.408 23.552 33.792l-14.336 67.584c-24.576-12.288-51.2-18.432-78.848-18.432s-54.272 6.144-77.824 18.432L680.96 573.44c-6.144-15.36 3.072-31.744 22.528-31.744z m68.608 375.808c-64.512 0-117.76-52.224-117.76-117.76 0-64.512 52.224-116.736 117.76-116.736 64.512 0 117.76 52.224 117.76 116.736 0 65.536-52.224 117.76-117.76 117.76z" p-id="5100"></path></svg>